<svg viewBox="0 0 21 14" xmlns="http://www.w3.org/2000/svg"><path d="m-.5 2.74h22v7.26h-22z" fill="#fff"/><path d="m-.5 0h22v4.74h-22z" fill="#ef8f48"/><path d="m-.5 9.26h22v4.74h-22z" fill="#639354"/><g fill="#4b4f9b"><path d="m10.5 4.9a2 2 0 1 0 2 2 2 2 0 0 0 -2-2zm1.18 3.31a0 0 0 0 0 -.07 0 .05.05 0 0 0 0 .07 1.53 1.53 0 0 1 -.21.14s0 0-.07 0a.05.05 0 0 0 0 .07 1.69 1.69 0 0 1 -.27.11.05.05 0 0 0 -.07 0s0 0 0 .06h-.25a.06.06 0 0 0 -.06-.05.06.06 0 0 0 -.06.05h-.28a.06.06 0 0 0 -.05-.06.06.06 0 0 0 -.07 0 1.09 1.09 0 0 1 -.24-.07.06.06 0 0 0 0-.07.07.07 0 0 0 -.08 0 2 2 0 0 1 -.25-.14.06.06 0 0 0 0-.08.06.06 0 0 0 -.08 0 1.45 1.45 0 0 1 -.18-.17.06.06 0 0 0 0-.08.08.08 0 0 0 -.08 0 1 1 0 0 1 -.31-.18.07.07 0 0 0 0-.08.08.08 0 0 0 -.08 0 2.29 2.29 0 0 1 -.1-.23.07.07 0 0 0 0-.08.06.06 0 0 0 -.07 0 1.26 1.26 0 0 1 -.05-.28.06.06 0 0 0 .11-.14.06.06 0 0 0 -.06 0 1.34 1.34 0 0 1 0-.2.06.06 0 0 0 0-.12 1.2 1.2 0 0 1 .08-.27.06.06 0 0 0 .07 0 .07.07 0 0 0 0-.08 1.19 1.19 0 0 1 .1-.33.05.05 0 0 0 .1 0 .06.06 0 0 0 0-.08 1.81 1.81 0 0 1 .18-.21.06.06 0 0 0 .08 0 .06.06 0 0 0 0-.09l.2-.14a.06.06 0 0 0 .08 0 .06.06 0 0 0 0-.08l.26-.11a.07.07 0 0 0 .07 0 .06.06 0 0 0 0-.08 1.67 1.67 0 0 1 .39 0 .06.06 0 0 0 .06 0s0 0 .06-.06h.28a.07.07 0 0 0 .05.06.06.06 0 0 0 .07 0l.23.08a.07.07 0 0 0 0 .07 0 0 0 0 0 .07 0l.25.15a.06.06 0 0 0 .09.08l.18.17a.06.06 0 0 0 0 .08 0 0 0 0 0 .07 0l.16.24a.08.08 0 0 0 0 .08s.05 0 .07 0a.92.92 0 0 1 .09.23s0 0 0 .07a.06.06 0 0 0 .06 0 2.36 2.36 0 0 1 0 .28.06.06 0 0 0 0 .12 2.11 2.11 0 0 1 0 .25.06.06 0 0 0 -.06 0 .06.06 0 0 0 0 .06 2.29 2.29 0 0 1 -.09.28s0 0-.07 0a.08.08 0 0 0 0 .08l.07.37a.08.08 0 0 0 -.08 0 .06.06 0 0 0 0 .07 2.09 2.09 0 0 1 -.24.24z"/><path d="m11.55 7.61-.33-.23-.33-.21-.22-.17.24.1.37.14.37.13.38.12-.36-.16-.37-.15-.37-.13-.24-.05h.31l.39.05h.39.39l-.38-.08h-.39l-.4.03h-.25.25.39.39l.39-.06h-.39-.4l-.38-.08h-.25l.25-.06.38-.12.37-.14.36-.16-.38.11-.37.13-.37.13-.24.1.22-.13.34-.21.33-.22.25-.29-.34.19-.34.21a3.62 3.62 0 0 0 -.32.22l-.21.15.18-.17.28-.28.26-.32.25-.3-.29.3-.28.28a3.58 3.58 0 0 0 -.26.29l-.17.19c0-.07.1-.14.14-.21l.21-.35.19-.34c.06-.12.13-.23.18-.35a3.62 3.62 0 0 0 -.22.32l-.21.34-.19.34-.12.23.09-.23.12-.38c0-.12.08-.25.11-.38s.07-.25.09-.38c-.05.12-.09.24-.14.37l-.12.37c0 .13-.08.25-.11.38l-.06.24v-.25c0-.13 0-.26 0-.4s0-.26 0-.39v-.41c0 .13 0 .26-.05.39s0 .26 0 .39 0 .26 0 .39v.25-.25l-.06-.39c0-.13-.05-.26-.08-.38a2.74 2.74 0 0 0 -.09-.39v.39a2.44 2.44 0 0 0 .06.39c0 .13 0 .26.07.39l.06.25-.09-.24a2.75 2.75 0 0 0 -.15-.36c0-.12-.1-.24-.16-.36a2.31 2.31 0 0 0 -.18-.35c0 .12.09.25.14.37a2.75 2.75 0 0 0 .15.36 3 3 0 0 0 .16.36 2.4 2.4 0 0 0 .11.23l-.14-.21c-.08-.11-.16-.21-.23-.32l-.24-.31c-.09-.11-.17-.21-.26-.3l.22.33c.07.11.15.21.23.32a3.24 3.24 0 0 0 .24.31 1.46 1.46 0 0 0 .16.19l-.19-.17-.3-.26-.3-.25-.32-.24a3.83 3.83 0 0 0 .29.28l.29.26.31.25.2.15-.22-.13-.35-.18-.49-.12-.4-.16a3.79 3.79 0 0 0 .34.2 3.84 3.84 0 0 0 .35.18l.35.18.23.1-.24-.07-.38-.1-.39-.08-.36-.05.38.11.38.1.39.09h.24-1c-.14 0-.27 0-.4 0h.4.71.26l-.26.18-.39.08-.38.09-.38.12.39-.07.39-.08.38-.1.28-.04-.23.1-.36.17-.35.18a3.79 3.79 0 0 0 -.34.2l.36-.15.36-.17.35-.19.23-.14a1.56 1.56 0 0 0 -.2.16l-.31.24-.3.26-.28.34.32-.23.31-.25.3-.26.19-.17a1.63 1.63 0 0 0 -.17.2 3.65 3.65 0 0 0 -.24.31l-.24.32q-.11.15-.21.33l.25-.3.27-.33a3.71 3.71 0 0 1 .23-.32l.14-.22a1.63 1.63 0 0 0 -.11.23c-.06.12-.12.24-.17.36l-.09.38c-.05.12-.09.25-.13.37l.13-.35.16-.36.15-.36.09-.24-.06.26c0 .13-.06.26-.08.39s-.05.26-.06.39 0 .26-.05.39a2.74 2.74 0 0 0 .09-.39c0-.12.06-.25.08-.38s.05-.26.07-.39v-.26.27.39a2.56 2.56 0 0 0 0 .39v.4a2.67 2.67 0 0 0 0-.4c0-.13 0-.26 0-.39s0-.27 0-.4a2.46 2.46 0 0 0 0-.26l.06.26c0 .12.07.25.11.38s.07.25.11.37.09.25.14.37l-.09-.38c0-.13-.07-.25-.1-.38l-.12-.38-.09-.24a1.67 1.67 0 0 0 .12.23l.18.35.21.34c.06.11.14.22.21.33-.05-.12-.11-.24-.17-.36l-.19-.34-.2-.34.03-.23.17.2c.08.1.17.19.26.29l.27.28.29.28a3.76 3.76 0 0 0 -.25-.31 3.58 3.58 0 0 0 -.26-.29l-.28-.29-.18-.18.21.15.32.23.33.21.34.2a3.24 3.24 0 0 0 -.27-.26z"/></g></svg>